<svg width="120" height="40" viewBox="0 0 120 40" fill="none" xmlns="http://www.w3.org/2000/svg">
<path d="M110.135 9.99998e-05H9.53468C9.16798 9.99998e-05 8.80568 9.99996e-05 8.43988 0.00209999C8.13378 0.00409999 7.83008 0.00989997 7.52098 0.0148C6.8495 0.0226986 6.17959 0.0817696 5.51709 0.1915C4.8555 0.303619 4.21465 0.515001 3.61619 0.818498C3.01849 1.12458 2.47235 1.52228 1.9976 1.9972C1.52034 2.47073 1.12251 3.01808 0.819398 3.61819C0.515441 4.21716 0.304682 4.85902 0.1944 5.52159C0.0830607 6.18329 0.0231483 6.85262 0.0152 7.52358C0.00589999 7.83018 0.00489999 8.13778 0 8.44448V31.5586C0.00489999 31.8691 0.00589999 32.1699 0.0152 32.4806C0.0231558 33.1515 0.0830682 33.8208 0.1944 34.4824C0.304386 35.1453 0.515157 35.7875 0.819398 36.3867C1.12237 36.9849 1.52025 37.5301 1.9976 38.001C2.47055 38.478 3.01704 38.876 3.61619 39.1797C4.21464 39.484 4.85543 39.6967 5.51709 39.8105C6.1797 39.9194 6.84954 39.9785 7.52098 39.9873C7.82998 39.9941 8.13378 39.998 8.43998 39.998C8.80568 40 9.16798 40 9.53468 40H110.134C110.494 40 110.859 40 111.218 39.998C111.523 39.998 111.836 39.9941 112.14 39.9873C112.811 39.9789 113.479 39.9198 114.14 39.8105C114.804 39.6958 115.447 39.4833 116.049 39.1797C116.647 38.8758 117.193 38.4779 117.666 38.001C118.142 37.5282 118.541 36.9835 118.847 36.3867C119.149 35.7871 119.358 35.145 119.466 34.4824C119.578 33.8207 119.64 33.1515 119.652 32.4805C119.656 32.1699 119.656 31.8691 119.656 31.5586C119.664 31.1953 119.664 30.834 119.664 30.4648V9.53628C119.664 9.16998 119.664 8.80678 119.656 8.44448C119.656 8.13778 119.656 7.83018 119.652 7.52348C119.64 6.85247 119.578 6.18328 119.467 5.52149C119.358 4.85937 119.149 4.21764 118.847 3.61829C118.23 2.41533 117.251 1.43613 116.049 0.818398C115.447 0.515646 114.804 0.304319 114.14 0.1914C113.479 0.0812029 112.811 0.0221281 112.14 0.0147C111.836 0.00979998 111.523 0.00389999 111.218 0.00199999C110.859 0 110.494 9.99998e-05 110.135 9.99998e-05Z" fill="black"/>
<path d="M8.44483 39.125C8.14013 39.125 7.84283 39.1211 7.54053 39.1143C6.91433 39.1062 6.28959 39.0517 5.67143 38.9513C5.09504 38.852 4.53666 38.6673 4.01474 38.4033C3.49758 38.1415 3.02589 37.7983 2.61774 37.3867C2.20365 36.98 1.8589 36.5083 1.59715 35.9902C1.33254 35.4688 1.14941 34.9099 1.05415 34.333C0.951305 33.7131 0.895678 33.0863 0.887747 32.458C0.881347 32.2471 0.873047 31.545 0.873047 31.545V8.44438C0.873047 8.44438 0.881847 7.75298 0.887747 7.54978C0.895366 6.92249 0.950692 6.29669 1.05325 5.67779C1.1487 5.09931 1.33198 4.53881 1.59675 4.01569C1.85749 3.49799 2.20029 3.02589 2.61184 2.6177C3.02296 2.20562 3.49618 1.86059 4.01424 1.5952C4.53498 1.3321 5.0923 1.14875 5.66753 1.0513C6.28773 0.94992 6.91465 0.895134 7.54303 0.8874L8.44533 0.875H111.214L112.127 0.8877C112.749 0.895098 113.371 0.949452 113.985 1.0503C114.566 1.149 115.129 1.33366 115.656 1.5982C116.694 2.13303 117.538 2.9792 118.071 4.01809C118.332 4.53762 118.512 5.09358 118.606 5.66709C118.71 6.29105 118.768 6.92176 118.78 7.55418C118.783 7.83738 118.783 8.14158 118.783 8.44438C118.791 8.81938 118.791 9.17628 118.791 9.53618V30.4647C118.791 30.828 118.791 31.1825 118.783 31.5399C118.783 31.8651 118.783 32.163 118.779 32.4696C118.767 33.0908 118.71 33.7103 118.608 34.3231C118.515 34.9042 118.333 35.4674 118.068 35.9931C117.805 36.5055 117.462 36.9732 117.053 37.3788C116.644 37.7926 116.172 38.1379 115.653 38.4013C115.128 38.6673 114.566 38.8526 113.985 38.9511C113.367 39.0521 112.742 39.1066 112.116 39.1142C111.817 39.1212 111.518 39.1248 111.219 39.1249L110.135 39.1269L8.44483 39.125Z" fill="white"/>
<path d="M24.9967 19.8901C25.0079 19.0222 25.2385 18.1711 25.667 17.4162C26.0954 16.6613 26.7079 16.0271 27.4473 15.5724C26.9776 14.9015 26.3579 14.3494 25.6374 13.9599C24.9169 13.5704 24.1156 13.3543 23.2969 13.3286C21.5507 13.1453 19.8579 14.3736 18.968 14.3736C18.061 14.3736 16.6909 13.3468 15.2155 13.3772C14.2612 13.4081 13.3312 13.6856 12.5161 14.1827C11.7009 14.6799 11.0285 15.3797 10.5642 16.2139C8.55298 19.6959 10.0532 24.8132 11.9797 27.6279C12.9435 29.0061 14.07 30.5456 15.544 30.491C16.9864 30.4312 17.5252 29.5712 19.2662 29.5712C20.9911 29.5712 21.4965 30.491 23.0004 30.4563C24.5482 30.4312 25.5234 29.072 26.4534 27.6807C27.146 26.6986 27.6789 25.6132 28.0324 24.4647C27.1332 24.0844 26.3659 23.4478 25.8261 22.6343C25.2862 21.8208 24.9978 20.8664 24.9967 19.8901ZM22.1561 11.4776C23.0001 10.4645 23.4158 9.16236 23.3151 7.84766C22.0259 7.9831 20.8349 8.59933 19.9797 9.57355C19.5615 10.0495 19.2412 10.6031 19.0371 11.2029C18.833 11.8027 18.7491 12.4368 18.7903 13.069C19.4352 13.0757 20.0732 12.9359 20.6562 12.6602C21.2393 12.3846 21.752 11.9803 22.1561 11.4776ZM42.3018 27.1404H37.5684L36.4317 30.4968H34.4267L38.9102 18.0788H40.9932L45.4766 30.4968H43.4376L42.3018 27.1404ZM38.0586 25.5915H41.8106L39.961 20.1443H39.9092L38.0586 25.5915ZM55.1592 25.9705C55.1592 28.7839 53.6533 30.5915 51.3809 30.5915C50.8052 30.6216 50.2327 30.489 49.729 30.2089C49.2252 29.9287 48.8104 29.5124 48.5323 29.0075H48.4893V33.4919H46.6308V21.4431H48.4297V22.949H48.4639C48.7548 22.4466 49.1766 22.0324 49.6842 21.7505C50.1918 21.4687 50.7664 21.3297 51.3467 21.3484C53.6445 21.3484 55.1592 23.1649 55.1592 25.9705ZM53.249 25.9705C53.249 24.1375 52.3018 22.9324 50.8565 22.9324C49.4365 22.9324 48.4815 24.1628 48.4815 25.9704C48.4815 27.7947 49.4365 29.0164 50.8565 29.0164C52.3018 29.0164 53.249 27.8202 53.249 25.9705ZM65.1244 25.9705C65.1244 28.7839 63.6181 30.5915 61.3457 30.5915C60.77 30.6216 60.1975 30.489 59.6937 30.2089C59.1899 29.9287 58.7752 29.5124 58.4971 29.0075H58.4541V33.4919H56.5957V21.4431H58.3945V22.949H58.4287C58.7196 22.4466 59.1413 22.0324 59.649 21.7505C60.1566 21.4687 60.7311 21.3297 61.3115 21.3484C63.6093 21.3484 65.1244 23.1649 65.1244 25.9705ZM63.2139 25.9705C63.2139 24.1375 62.2666 22.9324 60.8213 22.9324C59.4013 22.9324 58.4463 24.1628 58.4463 25.9704C58.4463 27.7947 59.4013 29.0164 60.8213 29.0164C62.2666 29.0164 63.2139 27.8202 63.2139 25.9705ZM71.7094 27.0369C71.8471 28.2683 73.0434 29.0769 74.6781 29.0769C76.2445 29.0769 77.3715 28.2683 77.3715 27.1579C77.3715 26.194 76.6918 25.6169 75.0825 25.2214L73.4731 24.8337C71.1928 24.2829 70.1342 23.2165 70.1342 21.486C70.1342 19.3434 72.0014 17.8718 74.6518 17.8718C77.2768 17.8718 79.0756 19.3434 79.1362 21.486H77.2602C77.1479 20.2468 76.1234 19.4987 74.6264 19.4987C73.1293 19.4987 72.1049 20.2556 72.1049 21.3571C72.1049 22.2351 72.7592 22.7517 74.3598 23.1471L75.7279 23.4831C78.2758 24.0856 79.3334 25.1091 79.3334 26.9254C79.3334 29.2487 77.4838 30.7038 74.5404 30.7038C71.7864 30.7038 69.9271 29.2828 69.807 27.0368L71.7094 27.0369ZM83.3461 19.3006V21.4431H85.0678V22.9148H83.3461V27.906C83.3461 28.6814 83.6908 29.0427 84.4477 29.0427C84.6521 29.0391 84.8561 29.0248 85.059 28.9997V30.4627C84.7187 30.5262 84.3729 30.555 84.0268 30.5485C82.1938 30.5485 81.4789 29.8601 81.4789 28.1042V22.9148H80.1625V21.4431H81.4789V19.3006H83.3461ZM86.0639 25.9705C86.0639 23.1218 87.7416 21.3318 90.3579 21.3318C92.9829 21.3318 94.6528 23.1218 94.6528 25.9705C94.6528 28.8269 92.9916 30.6091 90.3578 30.6091C87.725 30.6091 86.0639 28.8269 86.0639 25.9705ZM92.7592 25.9705C92.7592 24.0164 91.8637 22.863 90.3578 22.863C88.852 22.863 87.9565 24.0251 87.9565 25.9705C87.9565 27.9324 88.852 29.0769 90.3578 29.0769C91.8637 29.0769 92.7592 27.9324 92.7592 25.9705ZM96.1849 21.4431H97.9574V22.9841H98.0004C98.1203 22.5028 98.4023 22.0775 98.7989 21.7796C99.1955 21.4817 99.6825 21.3295 100.178 21.3484C100.392 21.3477 100.606 21.3709 100.815 21.4177V23.156C100.544 23.0734 100.262 23.0355 99.9799 23.0437C99.7099 23.0328 99.4407 23.0804 99.1909 23.1832C98.941 23.2861 98.7164 23.4419 98.5325 23.6398C98.3485 23.8376 98.2095 24.073 98.1251 24.3297C98.0407 24.5863 98.0128 24.8583 98.0434 25.1267V30.4968H96.1849V21.4431ZM109.383 27.8376C109.133 29.4812 107.533 30.6091 105.485 30.6091C102.851 30.6091 101.216 28.8445 101.216 26.0134C101.216 23.1736 102.86 21.3318 105.407 21.3318C107.911 21.3318 109.487 23.0525 109.487 25.7976V26.4343H103.092V26.5466C103.063 26.8798 103.104 27.2155 103.215 27.5313C103.325 27.8472 103.501 28.136 103.731 28.3785C103.962 28.6211 104.241 28.8119 104.551 28.9382C104.86 29.0645 105.193 29.1234 105.528 29.1111C105.967 29.1522 106.408 29.0505 106.784 28.8211C107.161 28.5916 107.454 28.2467 107.619 27.8376H109.383ZM103.101 25.1355H107.627C107.644 24.8359 107.599 24.5361 107.494 24.2549C107.389 23.9737 107.228 23.7171 107.019 23.5014C106.811 23.2856 106.56 23.1152 106.282 23.001C106.005 22.8868 105.707 22.8312 105.407 22.8376C105.104 22.8358 104.804 22.894 104.524 23.0087C104.244 23.1234 103.989 23.2925 103.775 23.5061C103.561 23.7198 103.391 23.9738 103.275 24.2534C103.159 24.5331 103.1 24.8329 103.101 25.1355ZM37.8262 8.73175C38.2158 8.70379 38.6068 8.76265 38.9709 8.90408C39.335 9.04552 39.6632 9.266 39.9318 9.54963C40.2004 9.83327 40.4027 10.173 40.5241 10.5443C40.6455 10.9155 40.6829 11.3091 40.6338 11.6966C40.6338 13.6028 39.6035 14.6986 37.8262 14.6986H35.6709V8.73165L37.8262 8.73175ZM36.5977 13.8547H37.7227C38.0011 13.8714 38.2797 13.8257 38.5382 13.7211C38.7968 13.6165 39.0287 13.4555 39.2172 13.25C39.4057 13.0444 39.546 12.7994 39.6278 12.5328C39.7097 12.2662 39.7311 11.9847 39.6904 11.7087C39.7281 11.4339 39.7046 11.1542 39.6215 10.8895C39.5383 10.6248 39.3977 10.3818 39.2097 10.1779C39.0216 9.97398 38.7908 9.81417 38.5337 9.70992C38.2766 9.60568 37.9997 9.55959 37.7227 9.57495H36.5977V13.8547ZM41.6807 12.4451C41.6524 12.1492 41.6862 11.8507 41.7801 11.5686C41.8739 11.2865 42.0257 11.0272 42.2256 10.8072C42.4255 10.5872 42.6692 10.4114 42.9411 10.2912C43.2129 10.1709 43.5069 10.1088 43.8042 10.1088C44.1015 10.1088 44.3955 10.1709 44.6673 10.2912C44.9392 10.4114 45.1829 10.5872 45.3828 10.8072C45.5827 11.0272 45.7345 11.2865 45.8283 11.5686C45.9222 11.8507 45.956 12.1492 45.9277 12.4451C45.9566 12.7414 45.9232 13.0404 45.8297 13.323C45.7361 13.6056 45.5845 13.8655 45.3845 14.086C45.1845 14.3065 44.9406 14.4827 44.6684 14.6032C44.3962 14.7238 44.1019 14.7861 43.8042 14.7861C43.5065 14.7861 43.2121 14.7238 42.94 14.6032C42.6678 14.4827 42.4239 14.3065 42.2239 14.086C42.0239 13.8655 41.8723 13.6056 41.7787 13.323C41.6852 13.0404 41.6518 12.7414 41.6807 12.4451ZM45.0137 12.4451C45.0137 11.469 44.5752 10.8982 43.8057 10.8982C43.0332 10.8982 42.5987 11.469 42.5987 12.4451C42.5987 13.429 43.0333 13.9954 43.8057 13.9954C44.5752 13.9954 45.0137 13.4251 45.0137 12.4451ZM51.5733 14.6985H50.6513L49.7207 11.3821H49.6504L48.7237 14.6985H47.8106L46.5694 10.1955H47.4707L48.2774 13.6315H48.3438L49.2696 10.1955H50.1221L51.0479 13.6315H51.1182L51.9209 10.1955H52.8096L51.5733 14.6985ZM53.8535 10.1956H54.709V10.9109H54.7754C54.888 10.654 55.078 10.4386 55.3189 10.2948C55.5598 10.151 55.8395 10.0859 56.1192 10.1087C56.3383 10.0922 56.5583 10.1252 56.7629 10.2053C56.9674 10.2854 57.1514 10.4105 57.3011 10.5714C57.4508 10.7322 57.5623 10.9247 57.6275 11.1345C57.6927 11.3443 57.7099 11.5661 57.6778 11.7834V14.6984H56.7891V12.0066C56.7891 11.283 56.4746 10.9231 55.8174 10.9231C55.6686 10.9162 55.5201 10.9416 55.3821 10.9974C55.244 11.0532 55.1197 11.1382 55.0176 11.2466C54.9154 11.355 54.8379 11.4842 54.7904 11.6253C54.7429 11.7664 54.7264 11.9162 54.7422 12.0642V14.6985H53.8535V10.1956ZM59.0938 8.43776H59.9824V14.6985H59.0938V8.43776ZM61.2178 12.4451C61.1894 12.1492 61.2233 11.8506 61.3171 11.5685C61.411 11.2864 61.5628 11.027 61.7627 10.807C61.9627 10.587 62.2064 10.4112 62.4783 10.2909C62.7502 10.1706 63.0442 10.1084 63.3415 10.1084C63.6389 10.1084 63.9329 10.1706 64.2048 10.2909C64.4767 10.4112 64.7204 10.587 64.9204 10.807C65.1203 11.027 65.2721 11.2864 65.366 11.5685C65.4598 11.8506 65.4937 12.1492 65.4653 12.4451C65.4941 12.7414 65.4606 13.0403 65.367 13.3228C65.2733 13.6053 65.1216 13.8651 64.9216 14.0855C64.7216 14.3059 64.4777 14.482 64.2056 14.6025C63.9335 14.723 63.6392 14.7853 63.3415 14.7853C63.0439 14.7853 62.7496 14.723 62.4775 14.6025C62.2054 14.482 61.9615 14.3059 61.7615 14.0855C61.5614 13.8651 61.4098 13.6053 61.3161 13.3228C61.2225 13.0403 61.189 12.7414 61.2178 12.4451ZM64.5507 12.4451C64.5507 11.469 64.1122 10.8982 63.3428 10.8982C62.5703 10.8982 62.1357 11.469 62.1357 12.4451C62.1357 13.429 62.5704 13.9954 63.3428 13.9954C64.1122 13.9954 64.5507 13.4251 64.5507 12.4451ZM66.4008 13.4251C66.4008 12.6145 67.0043 12.1472 68.0756 12.0808L69.2953 12.0105V11.6218C69.2953 11.1462 68.9809 10.8777 68.3735 10.8777C67.8774 10.8777 67.5336 11.0598 67.435 11.3782H66.5746C66.6654 10.6047 67.393 10.1088 68.4145 10.1088C69.5434 10.1088 70.1801 10.6707 70.1801 11.6218V14.6985H69.3246V14.0657H69.2543C69.1116 14.2927 68.9112 14.4778 68.6736 14.602C68.436 14.7262 68.1697 14.7851 67.9018 14.7727C67.7128 14.7924 67.5218 14.7722 67.341 14.7135C67.1602 14.6548 66.9938 14.5589 66.8524 14.4319C66.7109 14.305 66.5977 14.1498 66.5199 13.9764C66.4422 13.803 66.4016 13.6152 66.4008 13.4251ZM69.2953 13.0403V12.6638L68.1957 12.7341C67.5756 12.7756 67.2943 12.9866 67.2943 13.3835C67.2943 13.7888 67.6459 14.0247 68.1293 14.0247C68.271 14.0391 68.4141 14.0248 68.5501 13.9827C68.6861 13.9406 68.8122 13.8716 68.921 13.7797C69.0298 13.6879 69.119 13.5751 69.1833 13.4481C69.2476 13.3211 69.2857 13.1824 69.2953 13.0403ZM71.3481 12.4451C71.3481 11.0222 72.0795 10.121 73.2172 10.121C73.4986 10.108 73.7779 10.1754 74.0225 10.3153C74.267 10.4552 74.4667 10.6618 74.5981 10.9109H74.6645V8.43765H75.5531V14.6984H74.7016V13.9869H74.6313C74.4897 14.2344 74.2831 14.4385 74.0339 14.577C73.7846 14.7155 73.5023 14.7831 73.2173 14.7726C72.0717 14.7726 71.3481 13.8713 71.3481 12.4451ZM72.2661 12.4451C72.2661 13.4001 72.7163 13.9749 73.4691 13.9749C74.2181 13.9749 74.6811 13.3919 74.6811 12.4489C74.6811 11.5105 74.2133 10.9192 73.4691 10.9192C72.7211 10.9192 72.2661 11.4978 72.2661 12.4451ZM79.2299 12.4451C79.2016 12.1492 79.2354 11.8507 79.3293 11.5686C79.4231 11.2865 79.5749 11.0272 79.7748 10.8072C79.9747 10.5872 80.2184 10.4114 80.4903 10.2912C80.7621 10.1709 81.0561 10.1088 81.3534 10.1088C81.6507 10.1088 81.9447 10.1709 82.2165 10.2912C82.4884 10.4114 82.7321 10.5872 82.932 10.8072C83.1319 11.0272 83.2837 11.2865 83.3775 11.5686C83.4714 11.8507 83.5052 12.1492 83.4769 12.4451C83.5058 12.7414 83.4724 13.0404 83.3789 13.323C83.2853 13.6056 83.1337 13.8655 82.9337 14.086C82.7337 14.3065 82.4898 14.4827 82.2176 14.6032C81.9454 14.7238 81.6511 14.7861 81.3534 14.7861C81.0557 14.7861 80.7613 14.7238 80.4892 14.6032C80.217 14.4827 79.9731 14.3065 79.7731 14.086C79.5731 13.8655 79.4215 13.6056 79.3279 13.323C79.2344 13.0404 79.201 12.7414 79.2299 12.4451ZM82.5629 12.4451C82.5629 11.469 82.1244 10.8982 81.3549 10.8982C80.5824 10.8982 80.1479 11.469 80.1479 12.4451C80.1479 13.429 80.5825 13.9954 81.3549 13.9954C82.1244 13.9954 82.5629 13.4251 82.5629 12.4451ZM84.6693 10.1956H85.5248V10.9109H85.5912C85.7038 10.654 85.8939 10.4386 86.1347 10.2948C86.3756 10.151 86.6554 10.0859 86.935 10.1087C87.1541 10.0922 87.3741 10.1252 87.5787 10.2053C87.7833 10.2854 87.9672 10.4105 88.1169 10.5714C88.2666 10.7322 88.3782 10.9247 88.4434 11.1345C88.5086 11.3443 88.5257 11.5661 88.4936 11.7834V14.6984H87.6049V12.0066C87.6049 11.283 87.2904 10.9231 86.6332 10.9231C86.4844 10.9162 86.3359 10.9416 86.1979 10.9974C86.0598 11.0532 85.9355 11.1382 85.8334 11.2466C85.7312 11.355 85.6538 11.4842 85.6062 11.6253C85.5587 11.7664 85.5422 11.9162 85.558 12.0642V14.6985H84.6694L84.6693 10.1956ZM93.5151 9.07455V10.2162H94.4907V10.9646H93.5151V13.28C93.5151 13.7517 93.7094 13.9583 94.1518 13.9583C94.265 13.9579 94.3781 13.9511 94.4906 13.9377V14.678C94.331 14.7066 94.1693 14.7218 94.0072 14.7234C93.019 14.7234 92.6254 14.3757 92.6254 13.5076V10.9646H91.9106V10.216H92.6254V9.07465L93.5151 9.07455ZM95.7045 8.43776H96.5854V10.9192H96.6557C96.7738 10.6599 96.969 10.4433 97.2147 10.299C97.4604 10.1546 97.7446 10.0895 98.0287 10.1126C98.2466 10.1007 98.4645 10.1371 98.6668 10.2191C98.8691 10.3012 99.0508 10.4268 99.1989 10.5872C99.347 10.7475 99.4579 10.9386 99.5237 11.1468C99.5895 11.3549 99.6085 11.575 99.5795 11.7913V14.6985H98.6899V12.0105C98.6899 11.2912 98.3549 10.927 97.727 10.927C97.5742 10.9145 97.4206 10.9355 97.2768 10.9886C97.133 11.0416 97.0026 11.1255 96.8946 11.2342C96.7866 11.3429 96.7037 11.474 96.6516 11.6181C96.5995 11.7622 96.5796 11.916 96.5932 12.0686V14.6985H95.7045V8.43776ZM104.761 13.4826C104.64 13.8942 104.379 14.2502 104.022 14.4884C103.665 14.7265 103.236 14.8317 102.81 14.7854C102.513 14.7933 102.218 14.7365 101.946 14.6189C101.673 14.5014 101.43 14.326 101.232 14.1049C101.034 13.8837 100.887 13.6222 100.8 13.3383C100.713 13.0545 100.689 12.7552 100.73 12.4612C100.69 12.1664 100.715 11.8664 100.801 11.5817C100.888 11.297 101.034 11.0343 101.231 10.8112C101.428 10.5881 101.67 10.4099 101.942 10.2887C102.214 10.1675 102.509 10.1061 102.806 10.1087C104.059 10.1087 104.815 10.9646 104.815 12.3786V12.6887H101.635V12.7385C101.621 12.9038 101.642 13.0701 101.696 13.2269C101.75 13.3836 101.837 13.5273 101.949 13.6488C102.062 13.7702 102.199 13.8668 102.352 13.9321C102.504 13.9975 102.669 14.0304 102.834 14.0285C103.047 14.0541 103.262 14.0158 103.453 13.9186C103.644 13.8214 103.801 13.6696 103.906 13.4826H104.761ZM101.635 12.0315H103.91C103.921 11.8804 103.9 11.7286 103.849 11.5859C103.798 11.4432 103.718 11.3127 103.614 11.2029C103.509 11.093 103.383 11.0062 103.243 10.948C103.103 10.8898 102.953 10.8616 102.801 10.865C102.647 10.8631 102.495 10.892 102.353 10.9499C102.21 11.0079 102.081 11.0937 101.972 11.2024C101.864 11.3111 101.778 11.4405 101.72 11.5829C101.662 11.7253 101.633 11.8778 101.635 12.0315Z" fill="black"/>
</svg>
