<svg width="79" height="33" viewBox="0 0 79 33" fill="none" xmlns="http://www.w3.org/2000/svg">
<g clip-path="url(#clip0_552_33817)">
<path d="M53.636 0.607823C53.636 0.607823 53.636 0.630902 53.636 0.646289V24.3337C53.636 25.3607 53.9036 26.0877 54.5931 26.0877C55.1018 26.0877 55.5503 25.6877 56.0891 24.8453C56.1758 24.6683 56.5375 25.0299 56.4772 25.1722C55.701 26.4916 54.3557 27.511 53.0972 27.511C51.1189 27.511 50.8513 25.4723 50.8513 24.4491V3.8582C50.8513 2.17724 50.3351 1.10019 48.9559 0.450112L48.9258 0.434726L48.9861 0.319328L49.0125 0.269322L49.5362 0.369333C49.9884 0.438572 50.467 0.473192 50.9832 0.473192C51.3223 0.473192 51.6992 0.442419 52.1212 0.377027C52.1777 0.377027 52.238 0.36164 52.2983 0.353947C52.7882 0.273168 53.1914 0.165464 53.636 0.00390625V0.542431" fill="#1B1A1A"/>
<path d="M61.1995 0.607823C61.1995 0.607823 61.1995 0.630902 61.1995 0.646289V24.3337C61.1995 25.3607 61.467 26.0877 62.1566 26.0877C62.6653 26.0877 63.1137 25.6877 63.6526 24.8453C63.7392 24.6683 64.101 25.0299 64.0407 25.1722C63.2645 26.4916 61.9192 27.511 60.6606 27.511C58.6823 27.511 58.4148 25.4723 58.4148 24.4491V3.8582C58.4148 2.17724 57.8986 1.10019 56.5194 0.450112L56.4893 0.434726L56.5496 0.319328L56.5759 0.269322L57.0997 0.369333C57.5519 0.438572 58.0304 0.473192 58.5467 0.473192C58.8858 0.473192 59.2626 0.442419 59.6847 0.377027C59.7412 0.377027 59.8015 0.36164 59.8618 0.353947C60.3516 0.273168 60.7548 0.165464 61.1995 0.00390625V0.542431" fill="#1B1A1A"/>
<path d="M48.93 3.25095C48.93 3.76254 48.768 4.18567 48.4401 4.51648C48.1387 4.82805 47.7581 4.99346 47.3022 5.01269C46.9894 5.02808 46.6729 4.95884 46.3903 4.82421C45.7346 4.50494 45.4105 3.96641 45.4105 3.22017C45.4105 2.75473 45.5349 2.37777 45.7836 2.08927C46.0323 1.80078 46.3639 1.61229 46.7784 1.51998C46.7143 1.3238 46.5448 1.1507 46.2734 1.00453C46.036 0.881439 45.7271 0.808354 45.3465 0.792967C45.2937 0.792967 45.2372 0.792967 45.1807 0.792967C44.6795 0.792967 44.2499 0.904519 43.8919 1.12762C43.534 1.34688 43.2589 1.64691 43.0629 2.02388C42.7992 2.48932 42.6371 3.18555 42.5731 4.10489C42.509 5.02423 42.4751 5.19733 42.4751 7.10524L42.4902 9.00546V11.4596C43.5001 11.4096 44.6494 11.3134 45.9494 11.1634C46.0134 11.1634 46.0662 11.2442 46.1114 11.4096C46.1529 11.5788 46.1717 11.7558 46.1717 11.952C46.1717 12.1481 46.1302 12.352 46.0436 12.5636C45.9569 12.7713 45.8966 12.8559 45.8514 12.8098C44.7436 12.4905 43.6206 12.2905 42.4902 12.2058V24.3496C42.4902 25.2304 42.72 25.8113 43.1798 26.1075C43.6357 26.4036 44.2612 26.5498 45.0639 26.5498V27.1884C44.6607 27.1691 44.0992 27.1422 43.3719 27.1114C42.6447 27.0845 41.9061 27.0691 41.1487 27.0691C40.3913 27.0691 39.7055 27.0845 39.0385 27.1114C38.3716 27.1422 37.8704 27.1691 37.5312 27.1884V26.5498C38.3489 26.5498 38.933 26.3998 39.2797 26.0921C39.6301 25.7843 39.8035 25.2074 39.8035 24.3496V12.1251C39.4982 12.0481 38.7634 12.0097 38.0776 12.0097C38.0098 12.0097 37.9759 11.9327 37.9759 11.775C37.9759 11.6173 38.0098 11.5481 38.0776 11.5481C38.9179 11.5481 39.4869 11.4442 39.8035 11.2365V10.1094C39.7771 9.77863 39.7545 9.40551 39.7432 9.00162C39.7507 7.78609 39.6716 6.38977 39.7055 5.91279C39.7733 5.02423 39.9843 4.26645 40.2255 3.63561C40.4629 3.00092 40.7907 2.44316 41.2052 1.95464C41.6386 1.44304 42.1925 1.03915 42.867 0.739115C43.5377 0.43908 44.2801 0.289063 45.0827 0.289063C45.1769 0.289063 45.2673 0.289062 45.3578 0.296756H45.3728C45.8627 0.319835 46.3036 0.400614 46.6955 0.539092C47.1627 0.708342 47.5697 0.923752 47.9201 1.18917C48.2442 1.45458 48.4929 1.76616 48.67 2.12005C48.8433 2.47393 48.93 2.85475 48.93 3.25095Z" fill="#1B1A1A"/>
<path d="M71.5955 27.1798L71.5767 27.2298L70.5178 30.0147C70.2013 30.8456 69.832 31.4495 69.4137 31.8265C68.9955 32.2034 68.5169 32.3919 67.9818 32.3919H67.9064C67.8763 32.3919 67.8424 32.3804 67.8009 32.3611C68.0195 32.238 68.2079 32.0649 68.3699 31.8418C68.5282 31.6187 68.6073 31.3341 68.6073 30.9879C68.6073 30.5225 68.4566 30.1647 68.1589 29.9224C67.8612 29.6762 67.5032 29.557 67.085 29.557C66.5876 29.557 66.1995 29.7031 65.9206 29.9993C65.6418 30.2917 65.5023 30.684 65.5023 31.1725C65.5023 31.5572 65.589 31.888 65.7699 32.1611C65.9508 32.4381 66.1919 32.6458 66.5009 32.7881C66.8099 32.9304 67.1528 32.9997 67.5334 32.9997C67.8914 32.9997 68.287 32.9458 68.7279 32.8343C69.165 32.7227 69.5418 32.515 69.8621 32.2073C70.0995 31.9842 70.3256 31.6995 70.5329 31.3533C70.7439 31.011 70.9474 30.584 71.1471 30.0763L72.1607 27.4221L71.5955 27.1798ZM77.9713 11.628C77.602 11.651 77.1913 11.6587 76.7315 11.6587C76.4339 11.6587 76.1588 11.6549 75.9101 11.6433C75.6614 11.6356 75.4089 11.6241 75.1489 11.6126C74.8889 11.6049 74.5799 11.5895 74.2219 11.5664V12.178C74.9379 12.2203 75.4767 12.3396 75.8347 12.5434C76.1927 12.7473 76.3962 13.0473 76.4489 13.4435C76.4979 13.8397 76.3924 14.3744 76.1324 15.0437L72.8277 23.8678L69.2366 14.7706C68.8975 13.9167 68.7769 13.3128 68.8749 12.955C68.9766 12.6011 69.2215 12.3857 69.6097 12.3165C69.9978 12.2434 70.4387 12.2088 70.9361 12.2088V11.5664C70.3407 11.6087 69.6963 11.651 69.0105 11.6895C68.3247 11.7318 67.6728 11.751 67.0548 11.751C66.4971 11.751 65.9809 11.7357 65.5023 11.7049C65.0238 11.6741 64.5641 11.628 64.127 11.5664V12.2088C64.3681 12.2088 64.6696 12.2934 65.0389 12.4665C65.4081 12.6396 65.7812 13.1243 66.158 13.9167L71.5767 27.2298L71.6558 27.4221H72.1607L77.0594 14.3129C77.3382 13.5397 77.6359 13.0012 77.9562 12.6973C78.2727 12.3896 78.6232 12.2203 79 12.178V11.5664C78.6835 11.5895 78.3405 11.6087 77.9713 11.628Z" fill="#1B1A1A"/>
<path d="M12.9247 25.7423C12.6534 25.9616 12.4236 26.1193 12.2314 26.2154C12.0392 26.3116 11.8357 26.3655 11.6247 26.3655C11.3157 26.3655 11.0896 26.2578 10.9427 26.0385C10.7995 25.8231 10.7279 25.4692 10.7279 24.9768V16.772C10.7279 15.8258 10.6525 15.0141 10.498 14.3371C10.3398 13.6563 10.0119 13.0831 9.51453 12.61C9.14902 12.2561 8.68553 11.983 8.12784 11.7984C7.56638 11.6137 6.89187 11.5176 6.10432 11.5176C5.2188 11.5176 4.42371 11.6291 3.71906 11.8561C3.66254 11.8753 3.60225 11.8945 3.54572 11.9138C2.92021 12.1253 2.40773 12.3754 1.997 12.6677C1.60888 12.9447 1.29235 13.237 1.04365 13.5524C0.791181 13.864 0.666831 14.2794 0.666831 14.791C0.666831 15.2411 0.794949 15.6527 1.05872 16.0181C1.31873 16.3797 1.72569 16.5605 2.28338 16.5605C2.76948 16.5605 3.16137 16.4181 3.47036 16.1335C3.77935 15.8489 3.93385 15.4603 3.93385 14.968C3.93385 14.4756 3.79819 14.0756 3.53065 13.7563C3.25934 13.4447 2.94281 13.2447 2.5773 13.1678C2.86368 12.787 3.23296 12.5254 3.68892 12.3715C3.75297 12.3484 3.8208 12.3292 3.88863 12.3138C4.43878 12.1753 4.95503 12.1061 5.43735 12.1061C5.91968 12.1061 6.3907 12.1792 6.7939 12.3292C7.1971 12.4754 7.52116 12.7639 7.76609 13.2024C8.00726 13.6332 8.12784 14.2641 8.12784 15.0911V16.9182C8.12784 17.3721 7.92812 17.7375 7.53246 18.0145C7.23855 18.2222 6.88057 18.4068 6.45476 18.5722C6.31534 18.6299 6.16838 18.6838 6.01389 18.7376C5.3959 18.9415 4.74401 19.1569 4.06197 19.3839C3.37616 19.6108 2.72803 19.8916 2.11005 20.2263C1.49206 20.5609 0.987127 21.0033 0.591467 21.5572C0.192039 22.1073 -0.00390625 22.815 -0.00390625 23.6805C-0.00390625 24.4114 0.146821 25.0499 0.444508 25.6038C0.742194 26.1539 1.18307 26.5847 1.76337 26.8848C2.33991 27.1886 3.02571 27.3425 3.81703 27.3425C4.7214 27.3425 5.53533 27.1271 6.25882 26.6963C6.98608 26.2655 7.60406 25.6038 8.12784 24.7191C8.12784 25.3076 8.21827 25.7962 8.40292 26.1808C8.58379 26.5655 8.85887 26.854 9.22815 27.054C9.59366 27.2502 10.0571 27.3463 10.6148 27.3463C11.2328 27.3463 11.7227 27.2425 12.0882 27.0386C12.4575 26.8347 12.8418 26.5732 13.245 26.2578L12.9285 25.7539V25.7423H12.9247ZM8.12407 23.9152C7.9545 24.196 7.78493 24.4499 7.60406 24.6768C7.30261 25.0576 6.97477 25.3615 6.63187 25.5961C6.08548 25.9693 5.49011 26.1539 4.85328 26.1539C4.13733 26.1539 3.57587 25.9193 3.16137 25.4461C2.75064 24.973 2.53962 24.3421 2.53962 23.5574C2.53962 22.7727 2.69411 22.1304 3.00311 21.638C3.30833 21.1418 3.70022 20.7456 4.17501 20.4417C4.64603 20.1378 5.14344 19.8686 5.66344 19.6416C6.03649 19.48 6.3907 19.3223 6.7223 19.1569C6.85796 19.0954 6.98608 19.0261 7.11043 18.9646C7.55507 18.7415 7.89044 18.4568 8.12407 18.1222V23.9113V23.9152Z" fill="#1B1A1A"/>
<path d="M25.5403 12.6831C25.3218 12.3408 25.0128 12.0561 24.6171 11.8407C24.2177 11.6253 23.7617 11.5176 23.2417 11.5176C22.5672 11.5176 21.9492 11.7138 21.3915 12.1061C20.8339 12.5023 20.3553 12.987 19.9596 13.5678C19.5602 14.1487 19.2588 14.7218 19.0477 15.2911V11.6022C18.6257 11.7407 18.1584 11.8407 17.646 11.9099C17.1297 11.9753 16.5984 12.0138 16.0407 12.0138C15.483 12.0138 14.8613 11.983 14.2471 11.9253V12.5446C15.0987 12.5446 15.6752 12.7562 15.9842 13.1832C16.2894 13.6024 16.4477 14.2602 16.4477 15.1449V24.3845C16.4477 25.2115 16.2744 25.7692 15.939 26.0654C15.5998 26.3616 15.0384 26.5078 14.2471 26.5078V27.1309C14.5749 27.1117 15.061 27.0848 15.7091 27.0578C16.3497 27.0271 17.0054 27.0117 17.661 27.0117C18.5654 27.0117 19.4246 27.0271 20.2347 27.0578C21.0449 27.0886 21.6704 27.1155 22.115 27.1309V26.5078C21.1692 26.5078 20.4231 26.3462 19.8767 26.0231C19.3266 25.6962 19.0515 25.0499 19.0515 24.0883V17.8299C19.0515 17.2798 19.1457 16.6836 19.3379 16.0412C19.3944 15.8565 19.4585 15.6719 19.5263 15.495C19.6959 15.0565 19.9031 14.6333 20.148 14.2294C20.4947 13.6601 20.9168 13.1908 21.4217 12.8293C21.9229 12.4638 22.473 12.2831 23.0722 12.2831C23.3435 12.2831 23.5432 12.3792 23.6788 12.5754C23.4264 12.737 23.2003 12.9447 23.0006 13.2139C22.7971 13.4793 22.6991 13.7986 22.6991 14.1717C22.6991 14.6641 22.8536 15.0449 23.1626 15.3065C23.4678 15.5757 23.8258 15.7065 24.2328 15.7065C24.7339 15.7065 25.1334 15.5219 25.4348 15.1488C25.7325 14.7718 25.8795 14.341 25.8795 13.8486C25.8795 13.4178 25.7702 13.0254 25.5479 12.6831H25.5403Z" fill="#1B1A1A"/>
<path d="M36.4085 23.1141C36.2163 24.2566 35.8357 25.2182 35.2667 26.0068C34.7015 26.7915 33.8273 27.1838 32.6554 27.1838C31.9997 27.1838 31.4571 27.1031 31.0351 26.9377C30.6093 26.7684 30.2362 26.5261 29.9046 26.2145C29.4788 25.7606 29.1849 25.2182 29.0229 24.5912C28.8608 23.9604 28.7779 23.1257 28.7779 22.0794V12.2052H28.7817V12.1898H28.7779V12.2052C28.4878 12.1282 28.0055 12.0898 27.3423 12.0898C27.282 12.0898 27.248 12.0205 27.248 11.8667C27.248 11.7128 27.282 11.6436 27.3423 11.6436C27.9791 11.6436 28.4576 11.582 28.7779 11.4589V7.08151C29.2603 7.06228 29.7237 7.01996 30.1684 6.96611C30.613 6.90456 31.0162 6.80455 31.3817 6.66992V11.4666C32.2258 11.4166 33.1716 11.332 34.2117 11.2089C34.2719 11.2089 34.3247 11.2897 34.3661 11.4512C34.4038 11.609 34.4302 11.7821 34.4302 11.9744C34.4302 12.1667 34.385 12.3629 34.3059 12.5668C34.223 12.7668 34.1589 12.8476 34.1137 12.8014C33.2131 12.5398 32.3012 12.3629 31.3817 12.2629V23.6142C31.3817 24.5335 31.5475 25.1836 31.8754 25.5606C32.207 25.9337 32.6592 26.1183 33.2357 26.1183C33.8122 26.1183 34.3134 25.876 34.7392 25.3952C35.1612 24.9182 35.5267 24.1027 35.8395 22.9603L36.416 23.1103H36.4085V23.1141Z" fill="#1B1A1A"/>
</g>
<defs>
<clipPath id="clip0_552_33817">
<rect width="79" height="33" fill="white"/>
</clipPath>
</defs>
</svg>
