<svg width="196" height="82" viewBox="0 0 196 82" fill="none" xmlns="http://www.w3.org/2000/svg">
<g clip-path="url(#clip0_536_12518)">
<path d="M132.528 1.49555C132.528 1.49555 132.528 1.55234 132.528 1.59019V59.8672C132.528 62.394 133.19 64.1826 134.893 64.1826C136.15 64.1826 137.258 63.1984 138.59 61.1258C138.804 60.6905 139.698 61.5801 139.549 61.9302C137.631 65.1763 134.307 67.6841 131.197 67.6841C126.309 67.6841 125.648 62.6684 125.648 60.1511V9.49231C125.648 5.35671 124.372 2.7069 120.965 1.10755L120.89 1.06969L121.039 0.785783L121.104 0.662755L122.398 0.90881C123.516 1.07915 124.698 1.16433 125.974 1.16433C126.812 1.16433 127.743 1.08862 128.786 0.927737C128.925 0.927737 129.074 0.889882 129.223 0.870955C130.434 0.672219 131.43 0.407238 132.528 0.00976562V1.33467" fill="white"/>
<path d="M151.215 1.49555C151.215 1.49555 151.215 1.55234 151.215 1.59019V59.8672C151.215 62.394 151.876 64.1826 153.58 64.1826C154.837 64.1826 155.945 63.1984 157.276 61.1258C157.49 60.6905 158.384 61.5801 158.235 61.9302C156.317 65.1763 152.993 67.6841 149.884 67.6841C144.995 67.6841 144.334 62.6684 144.334 60.1511V9.49231C144.334 5.35671 143.059 2.7069 139.651 1.10755L139.577 1.06969L139.726 0.785783L139.791 0.662755L141.085 0.90881C142.202 1.07915 143.385 1.16433 144.66 1.16433C145.498 1.16433 146.429 1.08862 147.472 0.927737C147.612 0.927737 147.761 0.889882 147.91 0.870955C149.12 0.672219 150.116 0.407238 151.215 0.00976562V1.33467" fill="white"/>
<path d="M120.9 7.99988C120.9 9.25854 120.499 10.2995 119.689 11.1134C118.944 11.88 118.004 12.2869 116.877 12.3342C116.105 12.3721 115.322 12.2017 114.624 11.8705C113.004 11.085 112.203 9.76011 112.203 7.92417C112.203 6.77907 112.511 5.85164 113.125 5.14186C113.74 4.43209 114.559 3.96838 115.583 3.74125C115.425 3.2586 115.006 2.83274 114.336 2.47312C113.749 2.17029 112.986 1.99048 112.045 1.95262C111.915 1.95262 111.775 1.95262 111.635 1.95262C110.397 1.95262 109.336 2.22707 108.451 2.77596C107.567 3.31539 106.887 4.05355 106.403 4.98098C105.751 6.12608 105.351 7.839 105.193 10.1008C105.034 12.3626 104.95 12.7885 104.95 17.4824L104.988 22.1575V28.1952C107.483 28.0722 110.323 27.8356 113.535 27.4665C113.693 27.4665 113.823 27.6653 113.935 28.0722C114.038 28.4886 114.084 28.9239 114.084 29.4066C114.084 29.8892 113.982 30.3908 113.768 30.9113C113.553 31.4223 113.404 31.6305 113.293 31.517C110.555 30.7315 107.781 30.2394 104.988 30.0312V59.9078C104.988 62.075 105.556 63.504 106.692 64.2327C107.818 64.9614 109.364 65.321 111.347 65.321V66.892C110.351 66.8447 108.963 66.7784 107.166 66.7027C105.369 66.6365 103.545 66.5986 101.673 66.5986C99.8016 66.5986 98.1071 66.6365 96.4591 66.7027C94.8111 66.7784 93.5728 66.8447 92.7349 66.892V65.321C94.7553 65.321 96.1984 64.952 97.055 64.1949C97.9209 63.4378 98.3492 62.0182 98.3492 59.9078V29.8325C97.595 29.6432 95.7794 29.5485 94.0849 29.5485C93.9173 29.5485 93.8335 29.3593 93.8335 28.9713C93.8335 28.5833 93.9173 28.4129 94.0849 28.4129C96.1612 28.4129 97.5671 28.1574 98.3492 27.6464V24.8735C98.284 24.0596 98.2281 23.1417 98.2002 22.148C98.2188 19.1575 98.0233 15.7222 98.1071 14.5487C98.2747 12.3626 98.7961 10.4983 99.392 8.94624C99.9785 7.38474 100.789 6.01252 101.813 4.81064C102.883 3.55198 104.252 2.5583 105.919 1.82013C107.576 1.08197 109.41 0.712891 111.393 0.712891C111.626 0.712891 111.85 0.712891 112.073 0.731818H112.11C113.321 0.7886 114.41 0.987336 115.378 1.32803C116.533 1.74443 117.538 2.27439 118.404 2.92738C119.205 3.58037 119.82 4.34692 120.257 5.21757C120.685 6.08823 120.9 7.02513 120.9 7.99988Z" fill="white"/>
<path d="M176.903 66.8738L176.856 66.9968L174.24 73.8485C173.458 75.8926 172.546 77.3784 171.512 78.3058C170.479 79.2333 169.296 79.697 167.974 79.697H167.788C167.713 79.697 167.63 79.6686 167.527 79.6213C168.067 79.3184 168.533 78.8926 168.933 78.3437C169.324 77.7948 169.52 77.0945 169.52 76.2428C169.52 75.0977 169.147 74.2175 168.412 73.6213C167.676 73.0157 166.792 72.7223 165.758 72.7223C164.529 72.7223 163.57 73.0819 162.881 73.8106C162.192 74.5298 161.848 75.4951 161.848 76.697C161.848 77.6434 162.062 78.4572 162.509 79.1292C162.956 79.8105 163.551 80.3216 164.315 80.6717C165.078 81.0219 165.926 81.1922 166.866 81.1922C167.751 81.1922 168.728 81.0597 169.818 80.7853C170.898 80.5108 171.829 79.9998 172.62 79.2427C173.207 78.6938 173.765 77.9935 174.277 77.1418C174.799 76.2995 175.301 75.2491 175.795 73.9999L178.3 67.47L176.903 66.8738ZM192.657 28.6124C191.744 28.6691 190.729 28.6881 189.593 28.6881C188.858 28.6881 188.178 28.6786 187.564 28.6502C186.949 28.6313 186.325 28.6029 185.683 28.5745C185.04 28.5556 184.277 28.5177 183.392 28.4609V29.9657C185.161 30.0698 186.493 30.3631 187.377 30.8647C188.262 31.3663 188.765 32.1044 188.895 33.0792C189.016 34.0539 188.755 35.3694 188.113 37.0161L179.948 58.7256L171.074 36.3441C170.237 34.2432 169.939 32.7574 170.181 31.8773C170.432 31.0067 171.037 30.4767 171.996 30.3063C172.955 30.1265 174.045 30.0414 175.274 30.0414V28.4609C173.802 28.565 172.21 28.6691 170.516 28.7638C168.821 28.8679 167.211 28.9152 165.684 28.9152C164.306 28.9152 163.03 28.8773 161.848 28.8016C160.665 28.7259 159.529 28.6124 158.449 28.4609V30.0414C159.045 30.0414 159.79 30.2496 160.702 30.6754C161.615 31.1013 162.537 32.2937 163.468 34.2432L176.856 66.9968L177.052 67.47H178.3L190.403 35.218C191.092 33.3158 191.828 31.9909 192.619 31.2432C193.401 30.4862 194.267 30.0698 195.198 29.9657V28.4609C194.416 28.5177 193.569 28.565 192.657 28.6124Z" fill="white"/>
<path d="M31.9365 63.3344C31.2662 63.8738 30.6982 64.2618 30.2234 64.4984C29.7485 64.735 29.2457 64.8675 28.7244 64.8675C27.9609 64.8675 27.4022 64.6025 27.0391 64.0631C26.6853 63.5331 26.5084 62.6624 26.5084 61.4511V41.2652C26.5084 38.9371 26.3222 36.9403 25.9405 35.2747C25.5494 33.5997 24.7394 32.1896 23.5104 31.0256C22.6073 30.1549 21.462 29.483 20.0841 29.0287C18.6968 28.5745 17.0302 28.3379 15.0843 28.3379C12.8963 28.3379 10.9317 28.6123 9.19062 29.1707C9.05096 29.218 8.90199 29.2653 8.76233 29.3126C7.21676 29.8331 5.95051 30.4483 4.93565 31.1675C3.97666 31.8489 3.19456 32.5681 2.58006 33.3441C1.95625 34.1107 1.64899 35.1328 1.64899 36.3914C1.64899 37.4987 1.96556 38.5113 2.6173 39.4103C3.25974 40.2999 4.26529 40.7447 5.64326 40.7447C6.84433 40.7447 7.81264 40.3945 8.57611 39.6942C9.33959 38.9939 9.72132 38.0381 9.72132 36.8268C9.72132 35.6154 9.38614 34.6312 8.72508 33.8457C8.05472 33.0792 7.27262 32.5871 6.36949 32.3978C7.0771 31.4609 7.98954 30.8174 9.11613 30.4388C9.27441 30.382 9.442 30.3347 9.6096 30.2969C10.969 29.9562 12.2445 29.7858 13.4363 29.7858C14.628 29.7858 15.7919 29.9656 16.7881 30.3347C17.7843 30.6943 18.5851 31.4041 19.1903 32.483C19.7861 33.5429 20.0841 35.0949 20.0841 37.1296V41.6248C20.0841 42.7415 19.5906 43.6406 18.613 44.3219C17.8868 44.833 17.0022 45.2872 15.9501 45.6942C15.6057 45.8361 15.2425 45.9686 14.8608 46.1011C13.3339 46.6027 11.7231 47.1326 10.0379 47.691C8.34335 48.2493 6.74192 48.9402 5.21497 49.7635C3.68803 50.5869 2.4404 51.6752 1.46278 53.0379C0.475853 54.3912 -0.00830078 56.1325 -0.00830078 58.2619C-0.00830078 60.0599 0.364125 61.6309 1.09967 62.9937C1.83521 64.347 2.92455 65.4069 4.35839 66.145C5.78292 66.8927 7.47746 67.2712 9.43269 67.2712C11.6672 67.2712 13.6783 66.7413 15.466 65.6813C17.2629 64.6214 18.7899 62.9937 20.0841 60.817C20.0841 62.265 20.3075 63.4668 20.7637 64.4132C21.2107 65.3596 21.8903 66.0693 22.8028 66.5614C23.7059 67.0441 24.8511 67.2807 26.2291 67.2807C27.756 67.2807 28.9664 67.0252 29.8696 66.5236C30.782 66.022 31.7317 65.3785 32.7279 64.6025L31.9458 63.3627V63.3344H31.9365ZM20.0748 58.8391C19.6558 59.53 19.2368 60.1546 18.7899 60.7129C18.045 61.6498 17.235 62.3975 16.3877 62.9747C15.0377 63.8927 13.5666 64.347 11.9931 64.347C10.2241 64.347 8.83681 63.7697 7.81264 62.6057C6.79778 61.4416 6.27638 59.8896 6.27638 57.959C6.27638 56.0284 6.65812 54.448 7.42159 53.2367C8.17576 52.0159 9.14406 51.0411 10.3172 50.2935C11.481 49.5459 12.71 48.8834 13.9949 48.3251C14.9167 47.9276 15.7919 47.5396 16.6112 47.1326C16.9464 46.9812 17.2629 46.8109 17.5702 46.6595C18.6689 46.1106 19.4975 45.4103 20.0748 44.5869V58.8297V58.8391Z" fill="white"/>
<path d="M63.1086 31.2054C62.5686 30.3631 61.8051 29.6628 60.8275 29.1328C59.8406 28.6029 58.714 28.3379 57.4291 28.3379C55.7625 28.3379 54.2355 28.8205 52.8576 29.7858C51.4796 30.7606 50.2971 31.953 49.3195 33.382C48.3326 34.811 47.5877 36.2211 47.0663 37.6217V28.5461C46.0236 28.8868 44.869 29.1328 43.6028 29.3032C42.3272 29.4641 41.0144 29.5587 39.6365 29.5587C38.2585 29.5587 36.7222 29.483 35.2046 29.341V30.8647C37.3088 30.8647 38.7333 31.3852 39.4968 32.4356C40.251 33.4672 40.642 35.0855 40.642 37.2621V59.9937C40.642 62.0284 40.2137 63.4006 39.3851 64.1293C38.5471 64.858 37.1598 65.2176 35.2046 65.2176V66.7507C36.0146 66.7034 37.2157 66.6372 38.8171 66.5709C40.3999 66.4952 42.02 66.4574 43.64 66.4574C45.8746 66.4574 47.9974 66.4952 49.9992 66.5709C52.001 66.6466 53.5466 66.7129 54.6452 66.7507V65.2176C52.3082 65.2176 50.4647 64.8201 49.1147 64.0252C47.7553 63.2208 47.0757 61.6309 47.0757 59.265V43.8677C47.0757 42.5144 47.3084 41.0475 47.7833 39.4671C47.9229 39.0129 48.0812 38.5586 48.2488 38.1233C48.6678 37.0444 49.1799 36.0034 49.7851 35.0097C50.6416 33.6091 51.6844 32.4546 52.9321 31.565C54.1704 30.6659 55.5297 30.2212 57.0101 30.2212C57.6805 30.2212 58.1739 30.4577 58.5091 30.9404C57.8853 31.3379 57.3267 31.8489 56.8332 32.5113C56.3304 33.1643 56.0884 33.9498 56.0884 34.8678C56.0884 36.0791 56.4701 37.016 57.2336 37.6596C57.9877 38.322 58.8722 38.6438 59.8778 38.6438C61.1161 38.6438 62.103 38.1895 62.8479 37.2715C63.5834 36.3441 63.9465 35.2842 63.9465 34.0728C63.9465 33.0129 63.6765 32.0476 63.1272 31.2054H63.1086Z" fill="white"/>
<path d="M89.9599 56.8671C89.485 59.6778 88.5446 62.0437 87.1387 63.9838C85.7421 65.9144 83.5821 66.8796 80.6865 66.8796C79.0664 66.8796 77.7257 66.6809 76.6829 66.274C75.6308 65.8576 74.709 65.2614 73.8897 64.4948C72.8376 63.3781 72.1114 62.0437 71.711 60.5012C71.3106 58.9491 71.1058 56.8955 71.1058 54.3214V30.0283H71.1151V29.9905H71.1058V30.0283C70.3889 29.839 69.1971 29.7444 67.5584 29.7444C67.4095 29.7444 67.3257 29.5741 67.3257 29.1955C67.3257 28.817 67.4095 28.6466 67.5584 28.6466C69.1319 28.6466 70.3144 28.4952 71.1058 28.1924V17.4228C72.2976 17.3754 73.4428 17.2713 74.5414 17.1389C75.6401 16.9874 76.6363 16.7414 77.5395 16.4102V28.2113C79.625 28.0883 81.962 27.8801 84.5318 27.5772C84.6807 27.5772 84.8111 27.776 84.9135 28.1734C85.0066 28.5614 85.0718 28.9873 85.0718 29.4605C85.0718 29.9337 84.96 30.4163 84.7645 30.9179C84.5597 31.41 84.4014 31.6087 84.2897 31.4952C82.0644 30.8516 79.8113 30.4163 77.5395 30.1703V58.0974C77.5395 60.3592 77.9491 61.9586 78.7592 62.886C79.5785 63.804 80.6958 64.2582 82.1203 64.2582C83.5448 64.2582 84.7831 63.662 85.8352 62.4791C86.878 61.3056 87.7812 59.2993 88.554 56.4886L89.9785 56.8577H89.9599V56.8671Z" fill="white"/>
</g>
<defs>
<clipPath id="clip0_536_12518">
<rect width="195.198" height="81.1884" fill="white"/>
</clipPath>
</defs>
</svg>
