<svg width="239" height="100" viewBox="0 0 239 100" fill="none" xmlns="http://www.w3.org/2000/svg">
<g clip-path="url(#clip0_552_33829)">
<path d="M162.267 1.84177C162.267 1.84177 162.267 1.91171 162.267 1.95833V73.7383C162.267 76.8505 163.076 79.0536 165.162 79.0536C166.701 79.0536 168.058 77.8413 169.688 75.2886C169.95 74.7524 171.045 75.8481 170.862 76.2794C168.514 80.2775 164.444 83.3664 160.636 83.3664C154.651 83.3664 153.842 77.1886 153.842 74.088V11.6914C153.842 6.59757 152.28 3.33378 148.108 1.36386L148.017 1.31723L148.199 0.967541L148.279 0.816008L149.863 1.11907C151.231 1.32889 152.679 1.4338 154.241 1.4338C155.267 1.4338 156.407 1.34054 157.684 1.14239C157.855 1.14239 158.037 1.09576 158.22 1.07245C159.702 0.827665 160.921 0.501286 162.267 0.0117188V1.64361" fill="#1B1A1A"/>
<path d="M185.146 1.84177C185.146 1.84177 185.146 1.91171 185.146 1.95833V73.7383C185.146 76.8505 185.956 79.0536 188.042 79.0536C189.581 79.0536 190.938 77.8413 192.568 75.2886C192.83 74.7524 193.924 75.8481 193.742 76.2794C191.394 80.2775 187.324 83.3664 183.516 83.3664C177.531 83.3664 176.722 77.1886 176.722 74.088V11.6914C176.722 6.59757 175.16 3.33378 170.988 1.36386L170.896 1.31723L171.079 0.967541L171.159 0.816008L172.743 1.11907C174.111 1.32889 175.559 1.4338 177.121 1.4338C178.147 1.4338 179.287 1.34054 180.564 1.14239C180.735 1.14239 180.917 1.09576 181.099 1.07245C182.581 0.827665 183.801 0.501286 185.146 0.0117188V1.64361" fill="#1B1A1A"/>
<path d="M148.028 9.8504C148.028 11.4007 147.538 12.6829 146.546 13.6854C145.634 14.6295 144.482 15.1307 143.103 15.189C142.157 15.2356 141.199 15.0258 140.344 14.6179C138.361 13.6504 137.38 12.0185 137.38 9.75715C137.38 8.34673 137.756 7.20441 138.509 6.33018C139.261 5.45595 140.264 4.88479 141.518 4.60504C141.325 4.01056 140.812 3.48603 139.991 3.04308C139.273 2.67008 138.338 2.44861 137.186 2.40198C137.027 2.40198 136.856 2.40198 136.685 2.40198C135.169 2.40198 133.869 2.74002 132.786 3.41609C131.703 4.0805 130.871 4.9897 130.278 6.13202C129.48 7.54244 128.99 9.65225 128.796 12.4381C128.602 15.224 128.5 15.7485 128.5 21.5301L128.545 27.2883V34.7251C131.6 34.5736 135.077 34.2822 139.01 33.8276C139.204 33.8276 139.364 34.0723 139.501 34.5736C139.626 35.0864 139.683 35.6226 139.683 36.2171C139.683 36.8116 139.558 37.4294 139.295 38.0705C139.033 38.6999 138.851 38.9564 138.714 38.8165C135.362 37.849 131.965 37.2429 128.545 36.9864V73.7856C128.545 76.4549 129.241 78.215 130.631 79.1126C132.011 80.0101 133.903 80.453 136.331 80.453V82.388C135.112 82.3297 133.413 82.2481 131.213 82.1549C129.013 82.0733 126.778 82.0266 124.487 82.0266C122.196 82.0266 120.121 82.0733 118.103 82.1549C116.085 82.2481 114.569 82.3297 113.543 82.388V80.453C116.017 80.453 117.784 79.9984 118.833 79.0659C119.893 78.1334 120.417 76.385 120.417 73.7856V36.7416C119.494 36.5085 117.271 36.392 115.196 36.392C114.991 36.392 114.888 36.1588 114.888 35.6809C114.888 35.203 114.991 34.9932 115.196 34.9932C117.738 34.9932 119.46 34.6785 120.417 34.049V30.6337C120.337 29.6313 120.269 28.5006 120.235 27.2767C120.258 23.5933 120.018 19.362 120.121 17.9166C120.326 15.224 120.964 12.9277 121.694 11.016C122.412 9.09274 123.404 7.40257 124.658 5.92221C125.969 4.37191 127.645 3.14799 129.685 2.2388C131.714 1.3296 133.96 0.875 136.388 0.875C136.673 0.875 136.947 0.875 137.221 0.898313H137.266C138.748 0.968251 140.082 1.21303 141.268 1.63266C142.681 2.14554 143.912 2.7983 144.973 3.60259C145.953 4.40688 146.705 5.35105 147.241 6.42343C147.766 7.49582 148.028 8.6498 148.028 9.8504Z" fill="#1B1A1A"/>
<path d="M216.599 82.364L216.542 82.5155L213.338 90.9547C212.381 93.4725 211.263 95.3026 209.998 96.4449C208.733 97.5872 207.285 98.1584 205.666 98.1584H205.438C205.347 98.1584 205.244 98.1234 205.119 98.0651C205.78 97.6921 206.35 97.1676 206.84 96.4915C207.319 95.8154 207.558 94.9529 207.558 93.9038C207.558 92.4934 207.102 91.4093 206.202 90.675C205.301 89.929 204.218 89.5676 202.953 89.5676C201.448 89.5676 200.274 90.0106 199.43 90.9081C198.587 91.794 198.165 92.9829 198.165 94.4633C198.165 95.6289 198.427 96.6314 198.974 97.459C199.521 98.2982 200.251 98.9277 201.186 99.359C202.121 99.7903 203.158 100 204.309 100C205.392 100 206.589 99.8369 207.923 99.4988C209.246 99.1608 210.386 98.5314 211.355 97.5989C212.073 96.9228 212.757 96.0602 213.384 95.0111C214.022 93.9737 214.638 92.6799 215.242 91.1412L218.309 83.0983L216.599 82.364ZM235.887 35.2373C234.77 35.3072 233.528 35.3305 232.137 35.3305C231.236 35.3305 230.404 35.3189 229.652 35.2839C228.899 35.2606 228.135 35.2256 227.349 35.1907C226.562 35.1673 225.627 35.1207 224.544 35.0508V36.9041C226.71 37.0324 228.341 37.3937 229.424 38.0115C230.507 38.6293 231.122 39.5385 231.282 40.7391C231.43 41.9397 231.111 43.5599 230.324 45.5881L220.326 72.3279L209.462 44.7605C208.436 42.1728 208.071 40.3428 208.368 39.2587C208.676 38.1863 209.417 37.5336 210.591 37.3238C211.765 37.1023 213.099 36.9974 214.604 36.9974V35.0508C212.802 35.179 210.853 35.3072 208.778 35.4238C206.703 35.552 204.731 35.6103 202.862 35.6103C201.174 35.6103 199.613 35.5637 198.165 35.4704C196.717 35.3772 195.326 35.2373 194.004 35.0508V36.9974C194.734 36.9974 195.646 37.2538 196.763 37.7784C197.88 38.3029 199.009 39.7716 200.148 42.1728L216.542 82.5155L216.781 83.0983H218.309L233.129 43.3734C233.972 41.0305 234.873 39.3986 235.842 38.4778C236.799 37.5452 237.86 37.0324 239 36.9041V35.0508C238.042 35.1207 237.005 35.179 235.887 35.2373Z" fill="#1B1A1A"/>
<path d="M39.1015 78.0056C38.2807 78.6701 37.5853 79.148 37.0039 79.4394C36.4225 79.7308 35.8069 79.894 35.1685 79.894C34.2337 79.894 33.5497 79.5676 33.1051 78.9032C32.6719 78.2504 32.4553 77.178 32.4553 75.686V50.823C32.4553 47.9555 32.2273 45.496 31.7599 43.4445C31.2812 41.3813 30.2894 39.6445 28.7846 38.2108C27.6788 37.1384 26.2766 36.3108 24.5894 35.7513C22.8908 35.1918 20.8502 34.9004 18.4676 34.9004C15.7886 34.9004 13.3832 35.2384 11.2514 35.9262C11.0804 35.9844 10.898 36.0427 10.727 36.101C8.83464 36.7421 7.28425 37.4998 6.04166 38.3856C4.86746 39.2249 3.90986 40.1108 3.15747 41.0666C2.39367 42.0108 2.01747 43.2697 2.01747 44.82C2.01747 46.1838 2.40507 47.431 3.20307 48.5383C3.98966 49.634 5.22086 50.1819 6.90805 50.1819C8.37865 50.1819 9.56424 49.7506 10.499 48.888C11.4338 48.0255 11.9012 46.8482 11.9012 45.3562C11.9012 43.8641 11.4908 42.6519 10.6814 41.6844C9.86064 40.7402 8.90304 40.1341 7.79725 39.901C8.66365 38.747 9.78084 37.9544 11.1602 37.4881C11.354 37.4182 11.5592 37.3599 11.7644 37.3133C13.4288 36.8936 14.9906 36.6838 16.4498 36.6838C17.909 36.6838 19.334 36.9053 20.5538 37.3599C21.7736 37.8028 22.754 38.6771 23.495 40.0059C24.2246 41.3114 24.5894 43.223 24.5894 45.7292V51.2659C24.5894 52.6414 23.9852 53.7487 22.7882 54.588C21.899 55.2174 20.816 55.7769 19.5278 56.2782C19.106 56.453 18.6614 56.6162 18.194 56.7794C16.3244 57.3972 14.3522 58.0499 12.2888 58.7377C10.214 59.4254 8.25325 60.2763 6.38365 61.2904C4.51406 62.3045 2.98647 63.645 1.78947 65.3235C0.581079 66.9904 -0.0117188 69.1352 -0.0117188 71.7578C-0.0117188 73.9725 0.444279 75.9075 1.34488 77.586C2.24547 79.2529 3.57927 80.5584 5.33486 81.4676C7.07905 82.3884 9.15384 82.8547 11.5478 82.8547C14.2838 82.8547 16.7462 82.2019 18.935 80.8964C21.1352 79.5909 23.0048 77.586 24.5894 74.9051C24.5894 76.6885 24.863 78.1688 25.4216 79.3345C25.9688 80.5001 26.801 81.3743 27.9182 81.9805C29.024 82.5749 30.4262 82.8663 32.1133 82.8663C33.9829 82.8663 35.4649 82.5516 36.5707 81.9338C37.6879 81.3161 38.8507 80.5234 40.0705 79.5676L39.1129 78.0406V78.0056H39.1015ZM24.578 72.4689C24.065 73.3198 23.552 74.0891 23.0048 74.7768C22.0928 75.9308 21.101 76.8517 20.0636 77.5627C18.4106 78.6934 16.6094 79.2529 14.6828 79.2529C12.5168 79.2529 10.8182 78.5418 9.56424 77.1081C8.32165 75.6744 7.68325 73.7627 7.68325 71.3848C7.68325 69.0069 8.15065 67.0603 9.08544 65.5683C10.0088 64.0646 11.1944 62.864 12.6308 61.9432C14.0558 61.0223 15.5606 60.2064 17.1338 59.5186C18.2624 59.0291 19.334 58.5512 20.3372 58.0499C20.7476 57.8634 21.1352 57.6536 21.5114 57.4671C22.8566 56.7911 23.8712 55.9285 24.578 54.9144V72.4572V72.4689Z" fill="#1B1A1A"/>
<path d="M77.2682 38.4323C76.607 37.3949 75.6722 36.5323 74.4752 35.8795C73.2668 35.2268 71.8874 34.9004 70.3142 34.9004C68.2736 34.9004 66.404 35.4949 64.7168 36.6838C63.0297 37.8844 61.5819 39.3531 60.3849 41.1132C59.1765 42.8733 58.2645 44.6101 57.6261 46.3353V35.1568C56.3493 35.5765 54.9357 35.8795 53.3853 36.0893C51.8235 36.2875 50.2161 36.4041 48.5289 36.4041C46.8417 36.4041 44.9607 36.3108 43.1025 36.136V38.0126C45.6789 38.0126 47.4231 38.6537 48.3579 39.9476C49.2813 41.2181 49.7601 43.2114 49.7601 45.8923V73.8909C49.7601 76.3971 49.2357 78.0872 48.2211 78.9848C47.1951 79.8823 45.4965 80.3253 43.1025 80.3253V82.2136C44.0943 82.1553 45.5649 82.0737 47.5257 81.9921C49.4637 81.8989 51.4473 81.8522 53.4309 81.8522C56.1669 81.8522 58.7661 81.8989 61.2171 81.9921C63.6681 82.0854 65.5604 82.167 66.9056 82.2136V80.3253C64.0442 80.3253 61.7871 79.8357 60.1341 78.8566C58.4697 77.8658 57.6375 75.9075 57.6375 72.9934V54.0285C57.6375 52.3616 57.9225 50.5549 58.5039 48.6083C58.6749 48.0488 58.8687 47.4893 59.0739 46.9531C59.5869 45.6242 60.2139 44.3421 60.9549 43.1181C62.0037 41.393 63.2805 39.9709 64.808 38.8752C66.3242 37.7679 67.9886 37.22 69.8012 37.22C70.622 37.22 71.2262 37.5114 71.6366 38.1059C70.8728 38.5955 70.1888 39.2249 69.5846 40.0408C68.969 40.8451 68.6726 41.8126 68.6726 42.9433C68.6726 44.4353 69.14 45.5893 70.0748 46.3819C70.9982 47.1979 72.0812 47.5942 73.3124 47.5942C74.8286 47.5942 76.037 47.0347 76.949 45.904C77.8496 44.7617 78.2942 43.4562 78.2942 41.9642C78.2942 40.6586 77.9636 39.4697 77.291 38.4323H77.2682Z" fill="#1B1A1A"/>
<path d="M110.146 70.0439C109.565 73.5058 108.413 76.4199 106.692 78.8095C104.982 81.1874 102.337 82.3763 98.7916 82.3763C96.808 82.3763 95.1664 82.1315 93.8896 81.6303C92.6014 81.1174 91.4728 80.3831 90.4696 79.4389C89.1814 78.0635 88.2922 76.4199 87.802 74.5199C87.3118 72.6083 87.061 70.0788 87.061 66.9083V36.9864H87.0724V36.9398H87.061V36.9864C86.1832 36.7533 84.724 36.6367 82.7176 36.6367C82.5352 36.6367 82.4326 36.4269 82.4326 35.9606C82.4326 35.4944 82.5352 35.2846 82.7176 35.2846C84.6442 35.2846 86.092 35.0981 87.061 34.7251V21.4601C88.5202 21.4018 89.9224 21.2736 91.2676 21.1104C92.6128 20.9239 93.8326 20.6209 94.9384 20.2129V34.7484C97.492 34.5969 100.353 34.3404 103.5 33.9674C103.682 33.9674 103.842 34.2122 103.967 34.7018C104.081 35.1797 104.161 35.7042 104.161 36.287C104.161 36.8698 104.024 37.4643 103.785 38.0821C103.534 38.6882 103.34 38.933 103.203 38.7931C100.479 38.0005 97.72 37.4643 94.9384 37.1613V71.5592C94.9384 74.3451 95.44 76.315 96.4318 77.4573C97.435 78.588 98.8029 79.1475 100.547 79.1475C102.291 79.1475 103.808 78.4131 105.096 76.9561C106.373 75.5107 107.478 73.0396 108.425 69.5776L110.169 70.0322H110.146V70.0439Z" fill="#1B1A1A"/>
</g>
<defs>
<clipPath id="clip0_552_33829">
<rect width="239" height="100" fill="white"/>
</clipPath>
</defs>
</svg>
