<svg width="136" height="40" viewBox="0 0 136 40" fill="none" xmlns="http://www.w3.org/2000/svg">
<path d="M130.664 40H5.66406C2.86406 40 0.664062 37.8 0.664062 35V5C0.664062 2.2 2.86406 0 5.66406 0H130.664C133.464 0 135.664 2.2 135.664 5V35C135.664 37.8 133.464 40 130.664 40Z" fill="white"/>
<path d="M130.664 0.8C132.964 0.8 134.864 2.7 134.864 5V35C134.864 37.3 132.964 39.2 130.664 39.2H5.66406C3.36406 39.2 1.46406 37.3 1.46406 35V5C1.46406 2.7 3.36406 0.8 5.66406 0.8H130.664ZM130.664 0H5.66406C2.86406 0 0.664062 2.3 0.664062 5V35C0.664062 37.8 2.86406 40 5.66406 40H130.664C133.464 40 135.664 37.8 135.664 35V5C135.664 2.3 133.464 0 130.664 0Z" fill="black"/>
<path d="M48.0642 10.2004C48.0642 11.0004 47.8642 11.7004 47.3642 12.2004C46.7642 12.8004 46.0642 13.1004 45.1642 13.1004C44.2642 13.1004 43.5642 12.8004 42.9642 12.2004C42.3642 11.6004 42.0642 10.9004 42.0642 10.0004C42.0642 9.10039 42.3642 8.40039 42.9642 7.80039C43.5642 7.20039 44.2642 6.90039 45.1642 6.90039C45.5642 6.90039 45.9642 7.00039 46.3642 7.20039C46.7642 7.40039 47.0642 7.60039 47.2642 7.90039L46.7642 8.40039C46.3642 7.90039 45.8642 7.70039 45.1642 7.70039C44.5642 7.70039 43.9642 7.90039 43.5642 8.40039C43.0642 8.80039 42.8642 9.40039 42.8642 10.1004C42.8642 10.8004 43.0642 11.4004 43.5642 11.8004C44.0642 12.2004 44.5642 12.5004 45.1642 12.5004C45.8642 12.5004 46.3642 12.3004 46.8642 11.8004C47.1642 11.5004 47.3642 11.1004 47.3642 10.6004H45.1642V9.80039H48.0642V10.2004ZM52.6642 7.70039H49.9642V9.60039H52.4642V10.3004H49.9642V12.2004H52.6642V13.0004H49.1642V7.00039H52.6642V7.70039ZM55.9642 13.0004H55.1642V7.70039H53.4642V7.00039H57.6642V7.70039H55.9642V13.0004ZM60.5642 13.0004V7.00039H61.3642V13.0004H60.5642ZM64.7642 13.0004H63.9642V7.70039H62.2642V7.00039H66.3642V7.70039H64.6642V13.0004H64.7642ZM74.2642 12.2004C73.6642 12.8004 72.9642 13.1004 72.0642 13.1004C71.1642 13.1004 70.4642 12.8004 69.8642 12.2004C69.2642 11.6004 68.9642 10.9004 68.9642 10.0004C68.9642 9.10039 69.2642 8.40039 69.8642 7.80039C70.4642 7.20039 71.1642 6.90039 72.0642 6.90039C72.9642 6.90039 73.6642 7.20039 74.2642 7.80039C74.8642 8.40039 75.1642 9.10039 75.1642 10.0004C75.1642 10.9004 74.8642 11.6004 74.2642 12.2004ZM70.4642 11.7004C70.8642 12.1004 71.4642 12.4004 72.0642 12.4004C72.6642 12.4004 73.2642 12.2004 73.6642 11.7004C74.0642 11.3004 74.3642 10.7004 74.3642 10.0004C74.3642 9.30039 74.1642 8.70039 73.6642 8.30039C73.2642 7.90039 72.6642 7.60039 72.0642 7.60039C71.4642 7.60039 70.8642 7.80039 70.4642 8.30039C70.0642 8.70039 69.7642 9.30039 69.7642 10.0004C69.7642 10.7004 69.9642 11.3004 70.4642 11.7004ZM76.2642 13.0004V7.00039H77.1642L80.0642 11.7004V7.00039H80.8642V13.0004H80.0642L76.9642 8.10039V13.0004H76.2642Z" fill="black"/>
<path d="M68.7642 21.7996C66.3642 21.7996 64.4642 23.5996 64.4642 26.0996C64.4642 28.4996 66.3642 30.3996 68.7642 30.3996C71.1642 30.3996 73.0642 28.5996 73.0642 26.0996C73.0642 23.4996 71.1642 21.7996 68.7642 21.7996ZM68.7642 28.5996C67.4642 28.5996 66.3642 27.4996 66.3642 25.9996C66.3642 24.4996 67.4642 23.3996 68.7642 23.3996C70.0642 23.3996 71.1642 24.3996 71.1642 25.9996C71.1642 27.4996 70.0642 28.5996 68.7642 28.5996ZM59.4642 21.7996C57.0642 21.7996 55.1642 23.5996 55.1642 26.0996C55.1642 28.4996 57.0642 30.3996 59.4642 30.3996C61.8642 30.3996 63.7642 28.5996 63.7642 26.0996C63.7642 23.4996 61.8642 21.7996 59.4642 21.7996ZM59.4642 28.5996C58.1642 28.5996 57.0642 27.4996 57.0642 25.9996C57.0642 24.4996 58.1642 23.3996 59.4642 23.3996C60.7642 23.3996 61.8642 24.3996 61.8642 25.9996C61.8642 27.4996 60.7642 28.5996 59.4642 28.5996ZM48.3642 23.0996V24.8996H52.6642C52.5642 25.8996 52.1642 26.6996 51.6642 27.1996C51.0642 27.7996 50.0642 28.4996 48.3642 28.4996C45.6642 28.4996 43.6642 26.3996 43.6642 23.6996C43.6642 20.9996 45.7642 18.8996 48.3642 18.8996C49.7642 18.8996 50.8642 19.4996 51.6642 20.1996L52.9642 18.8996C51.8642 17.8996 50.4642 17.0996 48.4642 17.0996C44.8642 17.0996 41.7642 20.0996 41.7642 23.6996C41.7642 27.2996 44.8642 30.2996 48.4642 30.2996C50.4642 30.2996 51.8642 29.6996 53.0642 28.3996C54.2642 27.1996 54.6642 25.4996 54.6642 24.1996C54.6642 23.7996 54.6642 23.3996 54.5642 23.0996H48.3642ZM93.7642 24.4996C93.3642 23.4996 92.3642 21.7996 90.1642 21.7996C87.9642 21.7996 86.1642 23.4996 86.1642 26.0996C86.1642 28.4996 87.9642 30.3996 90.3642 30.3996C92.2642 30.3996 93.4642 29.1996 93.8642 28.4996L92.4642 27.4996C91.9642 28.1996 91.3642 28.6996 90.3642 28.6996C89.3642 28.6996 88.7642 28.2996 88.2642 27.3996L93.9642 24.9996L93.7642 24.4996ZM87.9642 25.8996C87.9642 24.2996 89.2642 23.3996 90.1642 23.3996C90.8642 23.3996 91.5642 23.7996 91.7642 24.2996L87.9642 25.8996ZM83.2642 29.9996H85.1642V17.4996H83.2642V29.9996ZM80.2642 22.6996C79.7642 22.1996 78.9642 21.6996 77.9642 21.6996C75.8642 21.6996 73.8642 23.5996 73.8642 25.9996C73.8642 28.3996 75.7642 30.1996 77.9642 30.1996C78.9642 30.1996 79.7642 29.6996 80.1642 29.1996H80.2642V29.7996C80.2642 31.3996 79.3642 32.2996 77.9642 32.2996C76.8642 32.2996 76.0642 31.4996 75.8642 30.7996L74.2642 31.4996C74.7642 32.5996 75.9642 33.9996 78.0642 33.9996C80.2642 33.9996 82.0642 32.6996 82.0642 29.5996V21.9996H80.2642V22.6996ZM78.0642 28.5996C76.7642 28.5996 75.6642 27.4996 75.6642 25.9996C75.6642 24.4996 76.7642 23.3996 78.0642 23.3996C79.3642 23.3996 80.3642 24.4996 80.3642 25.9996C80.3642 27.4996 79.3642 28.5996 78.0642 28.5996ZM102.464 17.4996H97.9642V29.9996H99.8642V25.2996H102.464C104.564 25.2996 106.564 23.7996 106.564 21.3996C106.564 18.9996 104.564 17.4996 102.464 17.4996ZM102.564 23.4996H99.8642V19.1996H102.564C103.964 19.1996 104.764 20.3996 104.764 21.2996C104.664 22.3996 103.864 23.4996 102.564 23.4996ZM114.064 21.6996C112.664 21.6996 111.264 22.2996 110.764 23.5996L112.464 24.2996C112.864 23.5996 113.464 23.3996 114.164 23.3996C115.164 23.3996 116.064 23.9996 116.164 24.9996V25.0996C115.864 24.8996 115.064 24.5996 114.264 24.5996C112.464 24.5996 110.664 25.5996 110.664 27.3996C110.664 29.0996 112.164 30.1996 113.764 30.1996C115.064 30.1996 115.664 29.5996 116.164 28.9996H116.264V29.9996H118.064V25.1996C117.864 22.9996 116.164 21.6996 114.064 21.6996ZM113.864 28.5996C113.264 28.5996 112.364 28.2996 112.364 27.4996C112.364 26.4996 113.464 26.1996 114.364 26.1996C115.164 26.1996 115.564 26.3996 116.064 26.5996C115.864 27.7996 114.864 28.5996 113.864 28.5996ZM124.364 21.9996L122.264 27.3996H122.164L119.964 21.9996H117.964L121.264 29.5996L119.364 33.7996H121.264L126.364 21.9996H124.364ZM107.564 29.9996H109.464V17.4996H107.564V29.9996Z" fill="black"/>
<path d="M11.0641 7.50195C10.7641 7.80195 10.6641 8.30195 10.6641 8.90195V31.002C10.6641 31.602 10.8641 32.102 11.1641 32.402L11.2641 32.502L23.6641 20.102V19.902L11.0641 7.50195Z" fill="url(#paint0_linear_536_12484)"/>
<path d="M27.664 24.3008L23.564 20.2008V19.9008L27.664 15.8008L27.764 15.9008L32.664 18.7008C34.064 19.5008 34.064 20.8008 32.664 21.6008L27.664 24.3008Z" fill="url(#paint1_linear_536_12484)"/>
<path d="M27.7642 24.202L23.5642 20.002L11.0642 32.502C11.5642 33.002 12.2642 33.002 13.1642 32.602L27.7642 24.202Z" fill="url(#paint2_linear_536_12484)"/>
<path d="M27.7642 15.8006L13.1642 7.5006C12.2642 7.0006 11.5642 7.1006 11.0642 7.6006L23.5642 20.0006L27.7642 15.8006Z" fill="url(#paint3_linear_536_12484)"/>
<path opacity="0.2" d="M27.6642 24.1016L13.1642 32.3016C12.3642 32.8016 11.6642 32.7016 11.1642 32.3016L11.0642 32.4016L11.1642 32.5016C11.6642 32.9016 12.3642 33.0016 13.1642 32.5016L27.6642 24.1016Z" fill="black"/>
<path opacity="0.12" d="M11.0641 32.302C10.7641 32.002 10.6641 31.502 10.6641 30.902V31.002C10.6641 31.602 10.8641 32.102 11.1641 32.402V32.302H11.0641ZM32.6641 21.302L27.6641 24.102L27.7641 24.202L32.6641 21.402C33.3641 21.002 33.6641 20.502 33.6641 20.002C33.6641 20.502 33.2641 20.902 32.6641 21.302Z" fill="black"/>
<path opacity="0.25" d="M13.1641 7.60125L32.6641 18.7012C33.2641 19.1012 33.6641 19.5012 33.6641 20.0012C33.6641 19.5012 33.3641 19.0012 32.6641 18.6012L13.1641 7.50125C11.7641 6.70125 10.6641 7.30125 10.6641 8.90125V9.00125C10.6641 7.50125 11.7641 6.80125 13.1641 7.60125Z" fill="white"/>
<defs>
<linearGradient id="paint0_linear_536_12484" x1="22.4641" y1="8.71195" x2="5.68106" y2="25.494" gradientUnits="userSpaceOnUse">
<stop stop-color="#00A0FF"/>
<stop offset="0.007" stop-color="#00A1FF"/>
<stop offset="0.26" stop-color="#00BEFF"/>
<stop offset="0.512" stop-color="#00D2FF"/>
<stop offset="0.76" stop-color="#00DFFF"/>
<stop offset="1" stop-color="#00E3FF"/>
</linearGradient>
<linearGradient id="paint1_linear_536_12484" x1="34.498" y1="20.0018" x2="10.301" y2="20.0018" gradientUnits="userSpaceOnUse">
<stop stop-color="#FFE000"/>
<stop offset="0.409" stop-color="#FFBD00"/>
<stop offset="0.775" stop-color="#FFA500"/>
<stop offset="1" stop-color="#FF9C00"/>
</linearGradient>
<linearGradient id="paint2_linear_536_12484" x1="25.4912" y1="22.298" x2="2.73321" y2="45.056" gradientUnits="userSpaceOnUse">
<stop stop-color="#FF3A44"/>
<stop offset="1" stop-color="#C31162"/>
</linearGradient>
<linearGradient id="paint3_linear_536_12484" x1="7.96121" y1="0.176601" x2="18.1242" y2="10.3396" gradientUnits="userSpaceOnUse">
<stop stop-color="#32A071"/>
<stop offset="0.069" stop-color="#2DA771"/>
<stop offset="0.476" stop-color="#15CF74"/>
<stop offset="0.801" stop-color="#06E775"/>
<stop offset="1" stop-color="#00F076"/>
</linearGradient>
</defs>
</svg>
